<?xml version="1.0" standalone="no"?>
<!DOCTYPE svg PUBLIC "-//W3C//DTD SVG 20010904//EN"
 "http://www.w3.org/TR/2001/REC-SVG-20010904/DTD/svg10.dtd">
<svg version="1.0" xmlns="http://www.w3.org/2000/svg"
 width="1024.000000pt" height="1024.000000pt" viewBox="0 0 1024.000000 1024.000000"
 preserveAspectRatio="xMidYMid meet">

<g transform="translate(0.000000,1024.000000) scale(0.100000,-0.100000)"
fill="#000000" stroke="none">
<path d="M5189 7299 c-123 -8 -300 -33 -414 -57 l-80 -17 -11 -83 c-6 -45 -9
-82 -7 -82 2 0 59 11 126 25 224 45 358 58 597 59 237 1 352 -9 576 -50 589
-107 1141 -400 1579 -839 239 -239 413 -483 568 -793 l91 -183 75 3 c70 3 76
5 79 26 4 27 -78 211 -160 359 -334 603 -862 1088 -1485 1364 -487 216 -1005
307 -1534 268z"/>
<path d="M1828 5785 c-128 -18 -241 -50 -285 -79 -53 -36 -87 -93 -88 -145 0
-59 23 -72 125 -69 69 3 75 5 78 25 4 26 -16 38 -76 48 -86 14 -4 40 175 56
435 38 1026 -128 1437 -403 243 -162 392 -322 490 -527 40 -85 41 -88 41 -196
0 -105 -2 -114 -33 -177 -78 -158 -276 -270 -547 -307 -140 -20 -461 -8 -487
17 -4 4 -10 134 -14 290 l-7 282 61 0 c180 0 497 -76 515 -123 8 -22 -19 -55
-64 -77 -69 -36 -39 -70 62 -70 60 0 95 17 137 64 45 51 56 100 37 163 -43
144 -267 239 -592 250 l-153 6 -4 31 c-3 17 -7 69 -10 116 -3 47 -12 112 -21
145 -30 117 -104 183 -134 119 -16 -37 -40 -196 -48 -326 l-6 -108 -36 -5
c-70 -11 -263 -65 -334 -95 -84 -35 -162 -91 -195 -140 -35 -52 -27 -121 23
-197 74 -112 232 -245 415 -349 52 -29 101 -57 108 -61 7 -4 17 -39 23 -77 16
-115 55 -154 142 -143 50 7 73 31 82 87 5 32 11 40 23 36 71 -22 226 -39 352
-39 355 0 660 116 816 311 116 144 163 317 131 476 -93 454 -737 956 -1464
1140 -235 60 -485 79 -675 51z m582 -1440 c0 -135 -4 -245 -9 -245 -20 0 -152
61 -224 103 -137 81 -287 213 -287 251 0 56 250 128 468 134 l52 2 0 -245z"/>
<path d="M4197 5606 c-129 -46 -267 -157 -312 -253 -41 -85 -37 -173 10 -245
15 -23 25 -52 25 -74 0 -89 62 -142 106 -91 12 14 23 30 25 36 3 7 18 7 49 0
151 -35 350 42 505 196 63 62 92 111 102 170 14 85 -32 160 -115 191 -26 10
-58 27 -72 40 -48 42 -85 54 -172 54 -62 0 -100 -7 -151 -24z m-59 -223 c-38
-38 -86 -90 -106 -118 -20 -27 -37 -52 -39 -54 -2 -3 -8 0 -14 6 -37 37 49
160 143 207 87 44 92 32 16 -41z m435 25 c9 -11 17 -36 17 -55 0 -70 -130
-173 -261 -208 -53 -14 -189 -21 -189 -9 0 15 98 128 148 171 78 67 116 93
170 114 54 21 89 17 115 -13z"/>
<path d="M8271 5086 c-10 -12 -8 -40 8 -138 17 -100 41 -301 41 -339 0 -5
-107 -10 -237 -11 l-238 -3 0 -80 0 -80 238 -3 c203 -2 239 -5 244 -18 3 -8 0
-115 -6 -236 -10 -182 -10 -222 1 -229 20 -13 122 -11 141 4 15 10 19 46 29
245 l12 232 231 0 c166 0 234 3 243 12 7 7 12 39 12 73 0 34 -5 66 -12 73 -9
9 -78 12 -249 12 l-237 0 -7 78 c-12 137 -46 366 -58 392 -11 22 -19 25 -78
28 -49 2 -69 -1 -78 -12z"/>
<path d="M5710 4945 c-7 -19 3 -73 44 -237 77 -304 94 -444 51 -408 -9 7 -38
51 -67 99 -80 134 -189 292 -234 338 -50 53 -91 58 -130 16 -50 -55 -101 -277
-111 -493 -8 -184 13 -260 79 -283 24 -8 76 11 88 33 14 26 30 180 30 286 0
101 9 184 20 184 4 0 35 -53 70 -117 72 -136 133 -233 179 -286 87 -99 213
-53 257 94 26 89 27 353 0 449 -37 135 -114 264 -192 322 -47 35 -72 36 -84 3z"/>
<path d="M7068 4853 c-84 -64 -197 -224 -243 -344 -40 -105 -47 -254 -15 -340
l22 -60 -50 -122 c-102 -248 -148 -460 -124 -574 6 -32 24 -78 40 -102 35 -57
101 -106 131 -96 24 7 21 -1 55 191 27 150 74 317 132 467 l35 92 82 0 c68 0
92 5 141 28 150 70 291 238 332 397 23 92 16 238 -15 302 -63 130 -190 124
-347 -16 -68 -60 -179 -192 -249 -295 l-50 -73 -3 40 c-4 56 27 139 102 274
74 129 101 218 74 244 -12 12 -19 11 -50 -13z m440 -296 c4 -65 -21 -135 -74
-207 -48 -66 -107 -108 -193 -141 -96 -36 -101 -27 -36 76 108 172 243 328
279 323 17 -2 22 -11 24 -51z"/>
<path d="M4647 4830 c-209 -44 -317 -134 -317 -263 0 -101 36 -117 310 -142
248 -23 349 -46 390 -90 31 -33 18 -63 -42 -97 -87 -52 -181 -73 -323 -73
-110 0 -136 3 -170 20 -65 33 -59 88 12 101 27 5 58 -2 132 -29 133 -50 133
-50 200 -36 134 26 159 77 57 117 -126 50 -318 67 -409 36 -124 -42 -153 -162
-62 -256 84 -86 206 -137 347 -146 187 -11 340 54 398 168 43 85 34 204 -21
280 -54 74 -126 96 -424 131 -104 12 -201 26 -214 31 -21 8 -23 11 -10 23 22
23 177 44 399 55 228 11 270 19 300 57 43 55 19 81 -105 113 -105 27 -321 27
-448 0z"/>
<path d="M6490 4840 c-118 -9 -344 -44 -384 -60 -31 -11 -33 -34 -7 -74 25
-37 69 -66 104 -66 15 0 27 -2 27 -5 0 -2 -14 -34 -32 -70 -28 -57 -37 -66
-66 -71 -44 -8 -55 -37 -39 -101 10 -41 9 -55 -7 -103 -21 -62 -32 -171 -22
-222 13 -73 117 -157 191 -158 121 -1 414 146 431 217 9 35 -5 72 -37 95 -26
19 -30 19 -135 4 -60 -9 -138 -23 -174 -30 -36 -8 -68 -11 -71 -8 -4 4 3 41
15 82 l22 75 134 8 c74 4 149 11 165 15 29 8 30 9 30 72 l0 65 -50 8 c-27 4
-87 5 -132 1 l-82 -6 15 48 c8 27 18 51 22 55 4 4 72 12 152 19 233 19 267 29
254 75 -8 30 -56 96 -84 116 -32 24 -106 29 -240 19z"/>
<path d="M4126 4801 c-63 -70 -91 -719 -34 -810 28 -45 130 -57 164 -20 17 20
19 37 17 213 -3 213 -17 430 -35 521 -8 42 -20 68 -39 88 -32 32 -50 34 -73 8z"/>
</g>
</svg>
